<?xml version="1.0" standalone="no"?>
<!DOCTYPE svg PUBLIC "-//W3C//DTD SVG 20010904//EN"
 "http://www.w3.org/TR/2001/REC-SVG-20010904/DTD/svg10.dtd">
<svg version="1.0" xmlns="http://www.w3.org/2000/svg"
 width="300.000000pt" height="300.000000pt" viewBox="0 0 300.000000 300.000000"
 preserveAspectRatio="xMidYMid meet">
<metadata>
Created by potrace 1.10, written by Peter Selinger 2001-2011
</metadata>
<g transform="translate(0.000000,300.000000) scale(0.100000,-0.100000)"
fill="#000000" stroke="none">
<path d="M2646 2413 c-44 -31 -117 -92 -162 -135 -76 -73 -82 -82 -78 -111 5
-29 -2 -39 -70 -107 -42 -41 -76 -78 -76 -83 0 -5 32 21 72 57 68 63 88 72 88
40 0 -21 14 -17 41 12 13 15 74 71 134 126 61 55 120 116 132 136 25 41 32
122 11 122 -7 0 -49 -26 -92 -57z m50 -41 c-4 -11 -53 -62 -109 -113 -56 -52
-108 -100 -115 -107 -19 -17 -30 -7 -24 23 5 27 108 126 197 189 52 38 60 39
51 8z"/>
<path d="M2634 2162 c-44 -31 -106 -75 -137 -97 -41 -29 -57 -46 -57 -63 0
-27 -34 -62 -109 -113 -28 -18 -51 -38 -51 -43 0 -4 11 -1 25 8 68 45 127 76
135 71 12 -7 208 110 248 148 34 33 57 95 47 127 -4 11 -9 20 -13 20 -4 -1
-43 -27 -88 -58z m40 -47 c-7 -19 -85 -75 -142 -104 -85 -43 -54 -6 63 77 69
49 90 56 79 27z"/>
<path d="M2140 1993 c-118 -120 -255 -265 -305 -321 -82 -96 -257 -265 -348
-337 -31 -25 -40 -40 -52 -92 -10 -44 -12 -70 -5 -88 15 -39 13 -68 -4 -62
-12 5 -12 2 0 -21 12 -23 12 -29 0 -41 -11 -10 -21 -11 -43 -3 -24 8 -32 7
-40 -7 -10 -14 -13 -14 -36 7 -24 22 -26 23 -35 5 -9 -14 -13 -16 -23 -5 -7 6
-21 12 -30 12 -11 0 -22 13 -29 34 -12 37 -41 67 -85 87 -17 8 -38 30 -48 50
-13 27 -27 39 -55 47 -22 7 -47 21 -58 33 -17 20 -18 22 -3 32 15 9 11 15 -26
39 -51 34 -111 106 -79 95 14 -6 13 -2 -6 13 -14 11 -28 20 -31 20 -4 0 -19
18 -35 41 -23 34 -25 42 -13 50 11 6 8 9 -11 9 -14 0 -48 9 -77 19 -47 16 -51
16 -43 1 5 -9 27 -33 49 -53 23 -20 41 -41 41 -45 0 -17 105 -125 154 -159 47
-32 45 -34 -15 -17 -57 16 55 -95 130 -130 40 -18 46 -24 37 -38 -8 -13 -5
-23 14 -43 26 -27 175 -105 201 -105 8 0 20 -15 27 -33 32 -89 119 -164 210
-182 54 -11 57 -11 62 9 8 30 54 34 73 6 14 -20 21 -21 85 -14 l71 6 6 -38
c23 -142 42 -174 104 -174 21 0 40 3 44 6 3 3 -9 29 -27 57 -42 66 -89 158
-83 163 6 6 29 -31 60 -96 15 -30 38 -68 51 -85 l25 -30 48 25 c26 14 77 53
113 89 l65 63 -45 20 c-25 11 -88 35 -140 53 -76 27 -96 31 -98 19 -2 -8 -11
-14 -20 -14 -15 -1 -14 -3 3 -16 24 -18 138 -110 174 -141 14 -12 22 -22 16
-23 -5 0 -54 36 -109 79 -95 76 -100 78 -133 69 -44 -12 -52 -4 -25 25 44 46
15 110 -50 110 -44 0 -70 -34 -66 -87 2 -38 0 -41 -22 -40 -14 1 -40 8 -58 15
-28 12 -36 11 -67 -5 -30 -16 -41 -18 -74 -8 -48 15 -85 43 -123 96 l-30 41
29 6 c15 4 45 7 65 8 57 2 69 27 66 142 -2 103 11 142 58 170 67 41 211 190
305 316 105 141 190 233 314 339 94 79 251 244 234 244 -7 0 -110 -98 -229
-217z m-365 -1063 c17 -19 17 -20 -6 -45 -13 -13 -31 -25 -40 -25 -21 0 -44
26 -30 34 5 3 7 15 4 25 -4 14 1 21 19 24 12 2 26 5 29 6 3 0 14 -8 24 -19z
m225 -91 c28 -6 63 -21 77 -33 l26 -22 -23 -22 c-21 -20 -25 -20 -59 -6 -20 8
-38 18 -41 22 -3 4 -18 22 -34 40 -34 37 -28 39 54 21z m-30 -114 c19 -21 21
-27 10 -40 -32 -38 -91 3 -105 73 l-7 33 40 -21 c21 -11 49 -31 62 -45z m-114
-47 c3 -11 3 -23 -1 -26 -8 -8 -35 26 -35 45 0 19 28 4 36 -19z"/>
<path d="M240 2101 c0 -18 121 -160 173 -204 58 -48 112 -87 121 -87 4 0 2 9
-4 21 -10 18 -9 19 7 11 10 -6 39 -29 63 -51 l45 -41 -50 21 c-27 12 -83 37
-123 56 -41 19 -78 33 -83 31 -17 -6 88 -123 148 -165 57 -40 152 -88 159 -80
2 2 -22 22 -54 45 -31 23 -68 58 -82 77 -14 19 -31 35 -37 35 -13 0 -19 20 -7
20 3 0 23 -13 43 -29 72 -57 358 -238 425 -269 37 -18 80 -32 94 -32 23 0 20
4 -23 31 -72 45 -189 136 -375 288 -174 143 -420 331 -432 331 -5 0 -8 -4 -8
-9z"/>
<path d="M2549 1952 c-87 -53 -110 -73 -123 -103 -21 -48 -138 -157 -234 -220
-41 -27 -70 -49 -64 -49 6 0 57 25 112 55 55 30 103 55 105 55 3 0 5 -11 5
-24 0 -59 -88 -132 -214 -178 -74 -27 -60 -34 29 -13 36 8 70 15 76 15 14 0
11 -37 -5 -68 -35 -67 -104 -102 -201 -102 -42 0 -64 -4 -60 -10 3 -5 23 -10
44 -10 43 0 52 -6 44 -26 -10 -26 -65 -47 -123 -46 -54 0 -54 0 -27 -14 53
-28 26 -51 -42 -35 -40 9 -43 8 -38 -10 3 -12 -2 -24 -15 -33 -20 -14 -20 -14
0 -25 41 -22 202 -5 187 20 -4 5 12 9 35 9 38 0 110 22 110 34 0 3 -12 12 -26
19 -26 13 -24 14 45 19 51 4 81 12 99 25 26 19 55 63 47 71 -2 3 -34 1 -71 -3
-68 -7 -68 -7 -44 -25 22 -17 22 -18 4 -23 -10 -3 -36 -9 -57 -13 -26 -4 -45
-16 -59 -35 -12 -16 -29 -29 -37 -29 -9 -1 -33 -7 -54 -14 -37 -14 -58 -7 -34
12 6 5 29 15 50 22 22 7 50 27 69 51 18 22 43 42 57 45 66 15 177 55 214 78
52 30 73 53 82 89 9 33 3 34 -88 8 -37 -10 -67 -15 -67 -10 0 8 30 17 153 49
59 16 104 58 113 106 3 19 5 37 2 39 -2 2 -44 -9 -93 -26 -119 -39 -127 -36
-29 10 85 40 150 95 160 137 4 14 5 27 2 29 -2 2 -35 -12 -73 -31 -44 -21 -60
-33 -42 -31 41 6 33 -14 -21 -50 -57 -40 -65 -40 -80 -8 -10 22 -7 30 31 73
23 27 49 62 58 79 21 38 172 129 177 106 5 -21 -40 -66 -126 -125 -40 -28 -71
-53 -68 -55 9 -10 185 88 209 117 40 47 49 142 14 139 -7 -1 -60 -31 -118 -67z
m-74 -375 c-6 -14 -46 -33 -110 -53 -24 -7 -53 -18 -64 -23 -26 -14 -42 7 -16
21 9 6 25 18 35 28 31 31 54 39 107 40 38 0 51 -3 48 -13z m-115 -146 c0 -10
-101 -63 -108 -57 -2 3 4 18 14 35 15 26 25 31 56 31 21 0 38 -4 38 -9z"/>
<path d="M2202 1953 c-29 -46 -23 -51 13 -13 18 19 25 34 19 39 -5 5 -18 -5
-32 -26z"/>
<path d="M2085 1845 c-38 -29 -106 -91 -150 -137 -85 -88 -65 -75 50 32 39 36
95 86 125 112 74 63 61 60 -25 -7z"/>
<path d="M2213 1835 c-17 -23 -56 -56 -86 -73 -31 -17 -80 -52 -111 -76 -30
-25 -94 -73 -140 -106 -47 -33 -88 -65 -92 -72 -8 -12 35 17 176 121 52 39
131 95 175 126 115 78 136 98 121 111 -8 8 -20 0 -43 -31z"/>
<path d="M2248 1763 c-14 -21 -47 -63 -73 -93 l-49 -55 56 53 c30 30 65 71 77
93 28 50 21 51 -11 2z"/>
<path d="M2053 1571 c-28 -21 -62 -45 -75 -54 -13 -9 12 1 54 21 42 21 79 45
81 55 7 24 0 21 -60 -22z"/>
<path d="M1729 1482 c-32 -16 -34 -20 -32 -65 1 -26 -3 -47 -8 -47 -17 0 -30
-39 -20 -58 7 -14 6 -25 -4 -38 -7 -11 -12 -37 -11 -58 1 -32 8 -44 35 -65 19
-14 57 -46 85 -71 28 -25 65 -57 81 -71 17 -14 36 -36 44 -49 12 -20 11 -25
-3 -36 -14 -10 -10 -13 30 -23 25 -7 89 -30 141 -51 70 -29 99 -37 109 -30 14
12 64 132 64 154 0 23 -29 29 -186 35 l-151 6 -69 61 c-38 33 -90 76 -116 95
-40 31 -44 37 -30 47 16 10 15 13 -2 27 -20 15 -20 15 0 15 11 0 30 7 43 17
23 15 23 17 6 30 -11 7 -27 13 -37 13 -10 0 -18 5 -18 10 0 6 7 10 16 10 26 0
74 33 74 51 0 22 -26 32 -51 19 -13 -7 -19 -7 -19 0 0 5 4 10 9 10 12 0 66 69
59 75 -2 2 -20 -3 -39 -13z m436 -522 c46 -6 27 -7 -85 -7 -80 0 -154 3 -165
8 -26 10 169 9 250 -1z m11 -34 c3 -8 -2 -29 -11 -46 -15 -30 -19 -31 -53 -25
-20 3 -61 21 -90 38 l-54 32 74 6 c40 3 86 6 101 7 16 1 30 -4 33 -12z"/>
<path d="M1857 1468 c-31 -17 -55 -33 -53 -35 5 -5 126 55 126 62 0 10 -16 4
-73 -27z"/>
<path d="M1122 1447 c9 -9 19 -22 21 -29 4 -10 7 -10 15 0 7 11 10 11 15 -3 5
-11 3 -14 -6 -9 -6 4 -1 -5 12 -19 32 -35 22 -43 -34 -27 -25 7 -48 10 -52 7
-3 -4 7 -37 24 -74 17 -38 36 -87 43 -111 8 -24 16 -38 20 -31 8 12 -14 112
-30 141 -18 32 -12 48 19 48 37 0 48 16 27 38 -14 16 -14 19 2 29 14 8 24 6
47 -13 17 -13 36 -24 43 -24 6 0 12 -4 12 -10 0 -5 5 -10 10 -10 6 0 29 -12
51 -26 22 -14 50 -24 62 -22 18 3 13 9 -33 39 -142 91 -176 108 -230 115 -51
7 -53 6 -38 -9z"/>
<path d="M1008 1423 c-23 -26 -23 -36 2 -28 13 4 25 -1 37 -14 10 -12 21 -21
26 -21 5 0 4 6 -2 14 -9 11 -9 15 1 19 7 3 1 6 -14 6 -19 1 -28 7 -30 22 -3
21 -3 21 -20 2z"/>
<path d="M2005 1413 c-30 -16 -64 -25 -86 -25 -20 1 -54 -5 -75 -13 l-39 -15
40 6 c22 3 54 8 70 9 63 6 119 24 139 44 27 28 12 26 -49 -6z"/>
<path d="M1895 1275 c-27 -13 -44 -24 -37 -25 14 0 92 38 92 45 0 7 2 7 -55
-20z"/>
<path d="M1815 1280 l-40 -7 47 -2 c26 0 50 4 53 9 7 11 1 11 -60 0z"/>
<path d="M1547 783 c-23 -4 -26 -7 -16 -19 16 -19 33 -18 54 6 19 21 19 21
-38 13z"/>
</g>
</svg>
